<?xml version="1.0" encoding="UTF-8"?>
<svg id="Artwork" xmlns="http://www.w3.org/2000/svg" viewBox="0 0 283.29 87.97">
  <defs>
    <style>
      .cls-1 {
        fill: #5f4664;
      }
    </style>
  </defs>
  <path class="cls-1" d="m20.59,49.45l9.4-21.89h0c.11-.25.22-.29.34-.29s.22.04.33.28l9.61,21.9h-19.69Zm12.03-38.56c-.66-1.53-1.33-1.76-2.03-1.76s-1.36.24-2.03,1.76L0,75.67h9.25l7.91-18.29h26.44l7.71,18.29h9.35L32.63,10.89Z"/>
  <path class="cls-1" d="m189.19,75.67l-12.55-64.72c-.33-1.69-1.04-2.05-1.58-2.05-.67,0-1.26.57-1.74,1.69l-20.29,46.8-20.29-46.8c-.48-1.12-1.07-1.69-1.75-1.69-.54,0-1.25.36-1.58,2.05l-12.55,64.72h8.66l7.56-39.67c.17-.78.51-.95.77-.95.25,0,.47.16.67.46l17.39,40.17h2.23l17.39-40.16c.2-.31.42-.47.67-.47s.59.17.76.91l7.57,39.72h8.66Z"/>
  <path class="cls-1" d="m92.03,37.24l-4.84-1.88-.5-.2c-4.9-1.94-10.99-4.59-10.99-9.53,0-5.78,6.19-9.65,11.93-9.65s7.68,1.33,11.95,5.6c.49.49,1.72,1.24,2.94,1.1,1.02-.11,1.89-.65,2.12-.8.21-.1.81-.42,1.44-1.18,1.04-1.24.69-3.13.04-3.96-4.33-5.61-10.83-8.7-18.3-8.7-12.01,0-21.07,7.62-21.07,17.33s8.04,14.15,16.29,17.46l4.45,1.71c6.55,2.64,13.33,5.51,13.33,12.64s-7.6,11.65-14.64,11.65-12.9-4.7-13.99-11.43l-.14-.99s-7.95,0-9.3,0c.07,2.03.36,3.2.36,3.2,2.43,10.42,11.49,17.16,23.27,17.16,13.23,0,23.59-9.03,23.59-20.55,0-10.86-8.86-15.49-17.94-19"/>
  <path class="cls-1" d="m282.21,24.42c-.6,0-1.08.48-1.08,1.08v36.97c0,.6.48,1.08,1.08,1.08s1.08-.48,1.08-1.08V25.5c0-.6-.48-1.08-1.08-1.08Z"/>
  <path class="cls-1" d="m204.48,24.42c-.6,0-1.08.48-1.08,1.08v36.97c0,.6.48,1.08,1.08,1.08s1.08-.48,1.08-1.08V25.5c0-.6-.48-1.08-1.08-1.08Z"/>
  <path class="cls-1" d="m208.44,20.5L240.46,2.02c.52-.3.69-.96.4-1.48s-.96-.69-1.48-.4l-32.02,18.49c-.52.3-.69.96-.4,1.48.3.52.96.69,1.48.4Z"/>
  <path class="cls-1" d="m278.25,67.46l-32.02,18.49c-.52.3-.69.96-.4,1.48s.96.69,1.48.4l32.02-18.49c.52-.3.69-.96.4-1.48-.3-.52-.96-.69-1.48-.4Z"/>
  <path class="cls-1" d="m240.46,85.95l-32.02-18.49c-.52-.3-1.18-.12-1.48.4-.3.52-.12,1.18.4,1.48l32.02,18.49c.52.3,1.18.12,1.48-.4s.12-1.18-.4-1.48Z"/>
  <path class="cls-1" d="m279.33,18.63L247.3.14c-.52-.3-1.18-.12-1.48.4s-.12,1.18.4,1.48l32.02,18.49c.52.3,1.18.12,1.48-.4.3-.52.12-1.18-.4-1.48Z"/>
  <path class="cls-1" d="m273.58,62.69c.95,0,1.54-1.03,1.07-1.85l-14.58-25.26,16.65-9.61c.52-.3.69-.96.4-1.48-.3-.52-.96-.69-1.48-.4l-16.65,9.61-14.57-25.24c-.47-.82-1.66-.82-2.13,0l-14.57,25.24-16.65-9.61c-.52-.3-1.18-.12-1.48.4s-.12,1.18.4,1.48l16.65,9.61-14.58,25.26c-.47.82.12,1.85,1.07,1.85h29.16v19.21c0,.6.48,1.08,1.08,1.08s1.08-.48,1.08-1.08v-19.21h29.16Zm-24.55-21.98c.3.52.96.69,1.48.4l7.61-4.4,12.65,21.88-26.35-15.21V12.97l12.62,21.86-7.61,4.4c-.52.3-.69.96-.4,1.48Zm-11.77-1.48l-7.61-4.39,12.62-21.86v30.41l-26.34,15.2,12.65-21.88,7.61,4.39c.52.3,1.18.12,1.48-.4.3-.52.12-1.18-.4-1.48Zm-20.26,21.21l26.35-15.2,26.34,15.21-25.26-.07v-8.75c0-.6-.48-1.08-1.08-1.08s-1.08.48-1.08,1.08v8.75l-25.26.06Z"/>
</svg>